<svg width="357" height="234" fill="none" xmlns="http://www.w3.org/2000/svg"><g clip-path="url(#clip0)"><path d="M337.3 225.4H24.1c-4.2 0-7.6-3.4-7.6-7.6V7.6c0-4.2 3.4-7.6 7.6-7.6h313.2c4.2 0 7.6 3.4 7.6 7.6v210.1c.1 4.3-3.4 7.7-7.6 7.7z" fill="#00D5E4" style="animation:lSUkEeJm_draw 1574ms ease 0ms forwards"/><path d="M325.6 223.1h-291c-4.2 0-7.6-3.4-7.6-7.6V20.6c0-4.2 3.4-7.6 7.6-7.6h291c4.2 0 7.6 3.4 7.6 7.6v194.9c.1 4.1-3.4 7.6-7.6 7.6z" fill="#065090" style="animation:lSUkEeJm_draw 1466ms ease 1574ms forwards"/><path stroke="#FCFDFD" stroke-width="5" d="M75 31.5h39" style="animation:lSUkEeJm_draw 57ms ease 3040ms forwards" stroke-dasharray="39 41" stroke-dashoffset="40"/><path stroke="#5E94C1" stroke-width="4" d="M46 32h4" style="animation:lSUkEeJm_draw 7ms ease 3098ms forwards" stroke-dasharray="4 6" stroke-dashoffset="5"/><path d="M75 41.5h27" stroke="#FCFDFD" stroke-width="5" style="animation:lSUkEeJm_draw 40ms ease 3105ms forwards" stroke-dasharray="27 29" stroke-dashoffset="28"/><path stroke="#5E94C1" stroke-width="4" d="M46 42h4" style="animation:lSUkEeJm_draw 7ms ease 3145ms forwards" stroke-dasharray="4 6" stroke-dashoffset="5"/><path d="M115 41.5h104" stroke="#FCFDFD" stroke-width="5" style="animation:lSUkEeJm_draw 150ms ease 3152ms forwards" stroke-dasharray="104 106" stroke-dashoffset="105"/><path d="M228 41.5h55" stroke="#FF6452" stroke-width="5" style="animation:lSUkEeJm_draw 80ms ease 3303ms forwards" stroke-dasharray="55 57" stroke-dashoffset="56"/><path d="M85 51.5h66" stroke="#00D050" stroke-width="5" style="animation:lSUkEeJm_draw 96ms ease 3384ms forwards" stroke-dasharray="66 68" stroke-dashoffset="67"/><path stroke="#5E94C1" stroke-width="4" d="M46 52h4" style="animation:lSUkEeJm_draw 7ms ease 3480ms forwards" stroke-dasharray="4 6" stroke-dashoffset="5"/><path d="M170 51.5h98" stroke="#FCFDFD" stroke-width="5" style="animation:lSUkEeJm_draw 142ms ease 3487ms forwards" stroke-dasharray="98 100" stroke-dashoffset="99"/><path d="M75 61.5h92" stroke="#FF6452" stroke-width="5" style="animation:lSUkEeJm_draw 133ms ease 3629ms forwards" stroke-dasharray="92 94" stroke-dashoffset="93"/><path stroke="#5E94C1" stroke-width="4" d="M46 62h4" style="animation:lSUkEeJm_draw 7ms ease 3763ms forwards" stroke-dasharray="4 6" stroke-dashoffset="5"/><path d="M175 61.5h66" stroke="#00D5E4" stroke-width="5" style="animation:lSUkEeJm_draw 96ms ease 3770ms forwards" stroke-dasharray="66 68" stroke-dashoffset="67"/><path d="M85 71.5h66" stroke="#FCFDFD" stroke-width="5" style="animation:lSUkEeJm_draw 96ms ease 3866ms forwards" stroke-dasharray="66 68" stroke-dashoffset="67"/><path stroke="#5E94C1" stroke-width="4" d="M46 72h4" style="animation:lSUkEeJm_draw 7ms ease 3962ms forwards" stroke-dasharray="4 6" stroke-dashoffset="5"/><path d="M75 81.5h96" stroke="#FCFDFD" stroke-width="5" style="animation:lSUkEeJm_draw 139ms ease 3970ms forwards" stroke-dasharray="96 98" stroke-dashoffset="97"/><path stroke="#5E94C1" stroke-width="4" d="M46 82h4" style="animation:lSUkEeJm_draw 7ms ease 4109ms forwards" stroke-dasharray="4 6" stroke-dashoffset="5"/><path d="M75 91.5h66" stroke="#FCFDFD" stroke-width="5" style="animation:lSUkEeJm_draw 96ms ease 4116ms forwards" stroke-dasharray="66 68" stroke-dashoffset="67"/><path stroke="#5E94C1" stroke-width="4" d="M46 92h4" style="animation:lSUkEeJm_draw 7ms ease 4212ms forwards" stroke-dasharray="4 6" stroke-dashoffset="5"/><path d="M95 101.5h109" stroke="#FF6452" stroke-width="5" style="animation:lSUkEeJm_draw 158ms ease 4220ms forwards" stroke-dasharray="109 111" stroke-dashoffset="110"/><path stroke="#5E94C1" stroke-width="4" d="M46 102h4" style="animation:lSUkEeJm_draw 7ms ease 4378ms forwards" stroke-dasharray="4 6" stroke-dashoffset="5"/><path d="M215 101.5h36" stroke="#FCFDFD" stroke-width="5" style="animation:lSUkEeJm_draw 53ms ease 4385ms forwards" stroke-dasharray="36 38" stroke-dashoffset="37"/><path d="M265 101.5h36" stroke="#FCFDFD" stroke-width="5" style="animation:lSUkEeJm_draw 53ms ease 4438ms forwards" stroke-dasharray="36 38" stroke-dashoffset="37"/><path d="M105 111.5h45" stroke="#FCFDFD" stroke-width="5" style="animation:lSUkEeJm_draw 66ms ease 4491ms forwards" stroke-dasharray="45 47" stroke-dashoffset="46"/><path stroke="#5E94C1" stroke-width="4" d="M46 112h4" style="animation:lSUkEeJm_draw 7ms ease 4557ms forwards" stroke-dasharray="4 6" stroke-dashoffset="5"/><path d="M105 121.5h60" stroke="#FF6452" stroke-width="5" style="animation:lSUkEeJm_draw 87ms ease 4564ms forwards" stroke-dasharray="60 62" stroke-dashoffset="61"/><path stroke="#5E94C1" stroke-width="4" d="M46 122h4" style="animation:lSUkEeJm_draw 7ms ease 4652ms forwards" stroke-dasharray="4 6" stroke-dashoffset="5"/><path d="M185 121.5h66" stroke="#FCFDFD" stroke-width="5" style="animation:lSUkEeJm_draw 96ms ease 4659ms forwards" stroke-dasharray="66 68" stroke-dashoffset="67"/><path d="M265 121.5h28" stroke="#FF6452" stroke-width="5" style="animation:lSUkEeJm_draw 41ms ease 4755ms forwards" stroke-dasharray="28 30" stroke-dashoffset="29"/><path d="M75 131.5h41" stroke="#FCFDFD" stroke-width="5" style="animation:lSUkEeJm_draw 60ms ease 4797ms forwards" stroke-dasharray="41 43" stroke-dashoffset="42"/><path stroke="#5E94C1" stroke-width="4" d="M46 132h4" style="animation:lSUkEeJm_draw 7ms ease 4857ms forwards" stroke-dasharray="4 6" stroke-dashoffset="5"/><path d="M75 141.5h66" stroke="#FCFDFD" stroke-width="5" style="animation:lSUkEeJm_draw 96ms ease 4864ms forwards" stroke-dasharray="66 68" stroke-dashoffset="67"/><path stroke="#5E94C1" stroke-width="4" d="M46 142h4" style="animation:lSUkEeJm_draw 7ms ease 4961ms forwards" stroke-dasharray="4 6" stroke-dashoffset="5"/><path d="M105 151.5h119" stroke="#FCFDFD" stroke-width="5" style="animation:lSUkEeJm_draw 172ms ease 4968ms forwards" stroke-dasharray="119 121" stroke-dashoffset="120"/><path stroke="#5E94C1" stroke-width="4" d="M46 152h4" style="animation:lSUkEeJm_draw 7ms ease 5140ms forwards" stroke-dasharray="4 6" stroke-dashoffset="5"/><path d="M235 151.5h74" stroke="#00D5E4" stroke-width="5" style="animation:lSUkEeJm_draw 107ms ease 5147ms forwards" stroke-dasharray="74 76" stroke-dashoffset="75"/><path d="M105 161.5h41" stroke="#FCFDFD" stroke-width="5" style="animation:lSUkEeJm_draw 60ms ease 5255ms forwards" stroke-dasharray="41 43" stroke-dashoffset="42"/><path stroke="#5E94C1" stroke-width="4" d="M46 162h4" style="animation:lSUkEeJm_draw 7ms ease 5316ms forwards" stroke-dasharray="4 6" stroke-dashoffset="5"/><path d="M155 161.5h41" stroke="#00D050" stroke-width="5" style="animation:lSUkEeJm_draw 60ms ease 5323ms forwards" stroke-dasharray="41 43" stroke-dashoffset="42"/><path d="M205 161.5h41" stroke="#FCFDFD" stroke-width="5" style="animation:lSUkEeJm_draw 60ms ease 5383ms forwards" stroke-dasharray="41 43" stroke-dashoffset="42"/><path d="M75 171.5h66" stroke="#FCFDFD" stroke-width="5" style="animation:lSUkEeJm_draw 96ms ease 5443ms forwards" stroke-dasharray="66 68" stroke-dashoffset="67"/><path stroke="#5E94C1" stroke-width="4" d="M46 172h4" style="animation:lSUkEeJm_draw 7ms ease 5540ms forwards" stroke-dasharray="4 6" stroke-dashoffset="5"/><path d="M95 181.5h66" stroke="#00D050" stroke-width="5" style="animation:lSUkEeJm_draw 96ms ease 5547ms forwards" stroke-dasharray="66 68" stroke-dashoffset="67"/><path stroke="#5E94C1" stroke-width="4" d="M46 182h4" style="animation:lSUkEeJm_draw 7ms ease 5643ms forwards" stroke-dasharray="4 6" stroke-dashoffset="5"/><path d="M173 181.5h65" stroke="#00D050" stroke-width="5" style="animation:lSUkEeJm_draw 94ms ease 5650ms forwards" stroke-dasharray="65 67" stroke-dashoffset="66"/><path d="M95 191.5h97" stroke="#FCFDFD" stroke-width="5" style="animation:lSUkEeJm_draw 140ms ease 5745ms forwards" stroke-dasharray="97 99" stroke-dashoffset="98"/><path stroke="#5E94C1" stroke-width="4" d="M46 192h4" style="animation:lSUkEeJm_draw 7ms ease 5886ms forwards" stroke-dasharray="4 6" stroke-dashoffset="5"/><path d="M95 201.5h49" stroke="#FCFDFD" stroke-width="5" style="animation:lSUkEeJm_draw 71ms ease 5893ms forwards" stroke-dasharray="49 51" stroke-dashoffset="50"/><path stroke="#5E94C1" stroke-width="4" d="M46 202h4" style="animation:lSUkEeJm_draw 7ms ease 5965ms forwards" stroke-dasharray="4 6" stroke-dashoffset="5"/><path d="M171 201.5h38" stroke="#FCFDFD" stroke-width="5" style="animation:lSUkEeJm_draw 56ms ease 5972ms forwards" stroke-dasharray="38 40" stroke-dashoffset="39"/><path d="M285 202l-18-8 18-8" stroke="#FCFDFD" stroke-width="3" stroke-linejoin="bevel" style="animation:lSUkEeJm_draw 58ms ease 6028ms forwards" stroke-dasharray="40 42" stroke-dashoffset="41"/><path d="M288.5 207.5l8-28" stroke="#FCFDFD" stroke-width="3" style="animation:lSUkEeJm_draw 44ms ease 6087ms forwards" stroke-dasharray="30 32" stroke-dashoffset="31"/><path d="M300 202l18-7.5-18-8.5" stroke="#FCFDFD" stroke-width="3" stroke-linejoin="bevel" style="animation:lSUkEeJm_draw 58ms ease 6131ms forwards" stroke-dasharray="40 42" stroke-dashoffset="41"/><path d="M337 233.7H20c-11 0-20-9-20-20h357c0 11.1-9 20-20 20z" fill="#00BBD3" style="animation:lSUkEeJm_draw 1060ms ease 6190ms forwards"/><path d="M354.3 223.7c1.7-2.9 2.7-6.4 2.7-10H0c0 3.6 1 7.1 2.7 10h351.6z" fill="#15D7E2" style="animation:lSUkEeJm_draw 1049ms ease 7250ms forwards"/></g><defs><clipPath id="clip0"><path fill="#fff" d="M0 0h357v233.7H0z" style="animation:lSUkEeJm_draw 1699ms ease 8300ms forwards" stroke-dasharray="1182 1184" stroke-dashoffset="1183"/></clipPath></defs><style data-made-with="vivus-instant">@keyframes lSUkEeJm_fade{0%,97.01492537313433%{stroke-opacity:1}}</style></svg>