<svg width="357" height="234" fill="none" xmlns="http://www.w3.org/2000/svg"><g clip-path="url(#clip0)"><path data-ignore="true" d="M337.3 225.4H24.1c-4.2 0-7.6-3.4-7.6-7.6V7.6c0-4.2 3.4-7.6 7.6-7.6h313.2c4.2 0 7.6 3.4 7.6 7.6v210.1c.1 4.3-3.4 7.7-7.6 7.7z" fill="#00D5E4"/><path data-ignore="true" d="M325.6 223.1h-291c-4.2 0-7.6-3.4-7.6-7.6V20.6c0-4.2 3.4-7.6 7.6-7.6h291c4.2 0 7.6 3.4 7.6 7.6v194.9c.1 4.1-3.4 7.6-7.6 7.6z" fill="#065090"/><path stroke="#5E94C1" stroke-width="4" d="M46 32h4"/><path stroke="#FCFDFD" stroke-width="5" d="M75 31.5h39"/><path stroke="#5E94C1" stroke-width="4" d="M46 42h4"/><path d="M75 41.5h27m13 0h104" stroke="#FCFDFD" stroke-width="5"/><path d="M228 41.5h55" stroke="#FF6452" stroke-width="5"/><path stroke="#5E94C1" stroke-width="4" d="M46 52h4"/><path d="M85 51.5h66" stroke="#00D050" stroke-width="5"/><path d="M170 51.5h98" stroke="#FCFDFD" stroke-width="5"/><path stroke="#5E94C1" stroke-width="4" d="M46 62h4"/><path d="M75 61.5h92" stroke="#FF6452" stroke-width="5"/><path d="M175 61.5h66" stroke="#00D5E4" stroke-width="5"/><path stroke="#5E94C1" stroke-width="4" d="M46 72h4"/><path d="M85 71.5h66" stroke="#FCFDFD" stroke-width="5"/><path stroke="#5E94C1" stroke-width="4" d="M46 82h4"/><path d="M75 81.5h96" stroke="#FCFDFD" stroke-width="5"/><path stroke="#5E94C1" stroke-width="4" d="M46 92h4"/><path d="M75 91.5h66" stroke="#FCFDFD" stroke-width="5"/><path stroke="#5E94C1" stroke-width="4" d="M46 102h4"/><path d="M95 101.5h109" stroke="#FF6452" stroke-width="5"/><path d="M215 101.5h36m14 0h36" stroke="#FCFDFD" stroke-width="5"/><path stroke="#5E94C1" stroke-width="4" d="M46 112h4"/><path d="M105 111.5h45" stroke="#FCFDFD" stroke-width="5"/><path stroke="#5E94C1" stroke-width="4" d="M46 122h4"/><path d="M105 121.5h60" stroke="#FF6452" stroke-width="5"/><path d="M185 121.5h66" stroke="#FCFDFD" stroke-width="5"/><path d="M265 121.5h28" stroke="#FF6452" stroke-width="5"/><path stroke="#5E94C1" stroke-width="4" d="M46 132h4"/><path d="M75 131.5h41" stroke="#FCFDFD" stroke-width="5"/><path stroke="#5E94C1" stroke-width="4" d="M46 142h4"/><path d="M75 141.5h66" stroke="#FCFDFD" stroke-width="5"/><path stroke="#5E94C1" stroke-width="4" d="M46 152h4"/><path d="M105 151.5h119" stroke="#FCFDFD" stroke-width="5"/><path d="M235 151.5h74" stroke="#00D5E4" stroke-width="5"/><path stroke="#5E94C1" stroke-width="4" d="M46 162h4"/><path d="M105 161.5h41" stroke="#FCFDFD" stroke-width="5"/><path d="M155 161.5h41" stroke="#00D050" stroke-width="5"/><path d="M205 161.5h41" stroke="#FCFDFD" stroke-width="5"/><path stroke="#5E94C1" stroke-width="4" d="M46 172h4"/><path d="M75 171.5h66" stroke="#FCFDFD" stroke-width="5"/><path stroke="#5E94C1" stroke-width="4" d="M46 182h4"/><path d="M95 181.5h66m12 0h65" stroke="#00D050" stroke-width="5"/><path stroke="#5E94C1" stroke-width="4" d="M46 192h4"/><path d="M95 191.5h97" stroke="#FCFDFD" stroke-width="5"/><path stroke="#5E94C1" stroke-width="4" d="M46 202h4"/><path d="M95 201.5h49m27 0h38" stroke="#FCFDFD" stroke-width="5"/><path d="M285 202l-18-8 18-8" stroke="#FCFDFD" stroke-width="3" stroke-linejoin="bevel"/><path d="M288.5 207.5l8-28" stroke="#FCFDFD" stroke-width="3"/><path d="M300 202l18-7.5-18-8.5" stroke="#FCFDFD" stroke-width="3" stroke-linejoin="bevel"/><path data-ignore="true" d="M337 233.7H20c-11 0-20-9-20-20h357c0 11.1-9 20-20 20z" fill="#00BBD3"/><path data-ignore="true" d="M354.3 223.7c1.7-2.9 2.7-6.4 2.7-10H0c0 3.6 1 7.1 2.7 10h351.6z" fill="#15D7E2"/></g><defs><clipPath id="clip0"><path fill="#fff" d="M0 0h357v233.7H0z"/></clipPath></defs></svg>