<svg width="30" height="30" fill="none" xmlns="http://www.w3.org/2000/svg"><path d="M11.836 21.023a.493.493 0 01-.32-.118L8.31 18.176a.495.495 0 010-.754l3.205-2.729a.495.495 0 11.642.754l-2.762 2.352 2.762 2.352a.495.495 0 01-.322.872zm6.327 0a.495.495 0 01-.321-.872l2.762-2.352-2.762-2.352a.495.495 0 11.642-.754l3.205 2.729a.495.495 0 010 .754l-3.205 2.73a.493.493 0 01-.32.117zm-4.298 2.047a.495.495 0 01-.485-.598l1.998-9.483a.495.495 0 01.969.204l-1.998 9.484a.495.495 0 01-.484.393z" fill="#4985FF"/><path d="M26.674 28.237H3.325A3.33 3.33 0 010 24.912V5.094A3.33 3.33 0 013.325 1.77h23.35A3.33 3.33 0 0130 5.094v19.818a3.33 3.33 0 01-3.326 3.325zM3.325 2.76A2.338 2.338 0 00.991 5.094v19.818a2.338 2.338 0 002.334 2.335h23.35a2.338 2.338 0 002.334-2.335V5.094a2.338 2.338 0 00-2.335-2.335H3.325z" fill="#4985FF"/><path d="M29.505 9.7H.495a.495.495 0 110-.99h29.01a.495.495 0 010 .99zM8.462 7.33a1.57 1.57 0 01-1.567-1.568 1.57 1.57 0 011.567-1.567 1.57 1.57 0 011.568 1.567A1.57 1.57 0 018.462 7.33zm0-2.144a.578.578 0 10.002 1.155.578.578 0 00-.002-1.155zM3.647 7.314a1.57 1.57 0 01-1.568-1.567A1.57 1.57 0 013.647 4.18a1.57 1.57 0 011.567 1.567 1.57 1.57 0 01-1.567 1.567zm0-2.144a.578.578 0 10.001 1.156.578.578 0 00-.001-1.156zm9.631 2.175a1.57 1.57 0 01-1.567-1.568c0-.864.703-1.567 1.567-1.567a1.57 1.57 0 011.567 1.567 1.57 1.57 0 01-1.567 1.568zm0-2.145a.577.577 0 10.002 1.155.577.577 0 00-.002-1.155z" fill="#4985FF"/></svg>