<svg width="86" height="38" fill="none" xmlns="http://www.w3.org/2000/svg"><path d="M9.75.563a24.044 24.044 0 00-.188 2.156 51.858 51.858 0 00-.046 2.25 44.472 44.472 0 00.843 8.578 43.113 43.113 0 001.055 4.242 36.576 36.576 0 001.453 3.938 27.39 27.39 0 001.875 3.492 16.989 16.989 0 002.32 2.86 11.597 11.597 0 002.227-3.282 20.08 20.08 0 001.336-3.89c.328-1.36.547-2.727.656-4.102.11-1.375.172-2.68.188-3.914h5.156c0 1.234.055 2.53.164 3.89.11 1.36.32 2.711.633 4.055a21.28 21.28 0 001.312 3.867 12.581 12.581 0 002.203 3.328 22.885 22.885 0 003.399-4.828 34.428 34.428 0 002.367-5.695 38.254 38.254 0 001.383-6.094c.297-2.078.445-4.117.445-6.117A40.12 40.12 0 0038.25.469c1.375.062 2.602.156 3.68.281 1.093.125 2.039.25 2.836.375a57.92 57.92 0 012.437.469V7.5a11.547 11.547 0 00-1.523-.398c-.485-.11-.961-.227-1.43-.352 0 3.36-.328 6.477-.984 9.352-.641 2.859-1.54 5.53-2.696 8.015a37.897 37.897 0 01-4.148 6.914 50.428 50.428 0 01-5.297 5.953 33.392 33.392 0 01-3.844-4.453c-1.172-1.64-2.25-3.5-3.234-5.578-1.016 2.078-2.125 3.945-3.328 5.602a32.663 32.663 0 01-3.844 4.476 48.496 48.496 0 01-5.227-5.953 37.504 37.504 0 01-4.054-6.914c-1.125-2.484-2-5.156-2.625-8.016-.625-2.875-.938-5.992-.938-9.351a107.5 107.5 0 01-1.64.351 11.24 11.24 0 00-1.547.399V1.594c0 .015.203-.016.61-.094a46.707 46.707 0 011.78-.281A49.029 49.029 0 016.047.867 65.757 65.757 0 019.75.563zM68.25.28c2.125 0 4.18.133 6.164.399 2 .25 3.79.687 5.367 1.312 1.594.61 2.899 1.438 3.914 2.485 1.032 1.046 1.633 2.351 1.805 3.914l-6.094 1.687c0-.937-.32-1.703-.96-2.297-.626-.61-1.462-1.086-2.508-1.43-1.032-.359-2.22-.609-3.563-.75a39.175 39.175 0 00-4.125-.21c-1.39 0-2.758.062-4.102.187-1.343.125-2.554.36-3.632.703-1.063.344-1.922.82-2.578 1.43-.657.61-.985 1.398-.985 2.367v5.578H85.5v12.14c0 1.048-.234 1.985-.703 2.813-.453.813-1.086 1.524-1.899 2.133-.796.594-1.75 1.102-2.859 1.524a22.723 22.723 0 01-3.562.984 34.64 34.64 0 01-4.008.54 54.425 54.425 0 01-8.461 0c-1.39-.11-2.711-.29-3.961-.54a22.289 22.289 0 01-3.492-.984c-1.063-.422-2-.93-2.813-1.524a7.711 7.711 0 01-1.969-2.133c-.5-.812-.804-1.75-.914-2.812l6.094-1.688c0 .97.328 1.758.984 2.368.657.609 1.516 1.085 2.579 1.43 1.078.343 2.289.577 3.632.702a44.27 44.27 0 004.102.188c1.422 0 2.797-.063 4.125-.188 1.344-.14 2.531-.382 3.563-.726 1.046-.36 1.882-.844 2.507-1.453.64-.61.961-1.383.961-2.32v-5.72H50.86v-12c0-1.046.227-1.968.68-2.765a6.95 6.95 0 011.898-2.11c.813-.609 1.774-1.117 2.883-1.523A21.848 21.848 0 0159.906.984a36.28 36.28 0 014.055-.539A55.904 55.904 0 0168.25.281z" fill="#34547A"/></svg>