<svg width="357" height="234" viewBox="0 0 357 234" fill="none" xmlns="http://www.w3.org/2000/svg" style="">
<g clip-path="url(#clip0)">
<path d="M337.3 225.4H24.1C19.9 225.4 16.5 222 16.5 217.8V7.6C16.5 3.4 19.9 0 24.1 0H337.3C341.5 0 344.9 3.4 344.9 7.6V217.7C345 222 341.5 225.4 337.3 225.4Z" fill="#00D5E4" class="lSUkEeJm_0"></path>
<path d="M325.6 223.1H34.6C30.4 223.1 27 219.7 27 215.5V20.6C27 16.4 30.4 13 34.6 13H325.6C329.8 13 333.2 16.4 333.2 20.6V215.5C333.3 219.6 329.8 223.1 325.6 223.1Z" fill="#065090" class="lSUkEeJm_1"></path>
<path stroke="#FCFDFD" stroke-width="5" d="M75,31.5L114,31.5" class="lSUkEeJm_2"></path>
<path stroke="#5E94C1" stroke-width="4" d="M46,32L50,32" class="lSUkEeJm_3"></path>
<path d="M75.0001 41.5L102 41.5" stroke="#FCFDFD" stroke-width="5" class="lSUkEeJm_4"></path>
<path stroke="#5E94C1" stroke-width="4" d="M46.0001,42L50.0001,42" class="lSUkEeJm_5"></path>
<path d="M115 41.5L219 41.5" stroke="#FCFDFD" stroke-width="5" class="lSUkEeJm_6"></path>
<path d="M228 41.5L283 41.5" stroke="#FF6452" stroke-width="5" class="lSUkEeJm_7"></path>
<path d="M85.0001 51.5L151 51.5" stroke="#00D050" stroke-width="5" class="lSUkEeJm_8"></path>
<path stroke="#5E94C1" stroke-width="4" d="M46,52L50,52" class="lSUkEeJm_9"></path>
<path d="M170 51.5L268 51.5" stroke="#FCFDFD" stroke-width="5" class="lSUkEeJm_10"></path>
<path d="M75.0001 61.5L167 61.5" stroke="#FF6452" stroke-width="5" class="lSUkEeJm_11"></path>
<path stroke="#5E94C1" stroke-width="4" d="M46,62L50,62" class="lSUkEeJm_12"></path>
<path d="M175 61.5L241 61.5" stroke="#00D5E4" stroke-width="5" class="lSUkEeJm_13"></path>
<path d="M85.0001 71.5L151 71.5" stroke="#FCFDFD" stroke-width="5" class="lSUkEeJm_14"></path>
<path stroke="#5E94C1" stroke-width="4" d="M46,72L50,72" class="lSUkEeJm_15"></path>
<path d="M75.0001 81.5L171 81.5" stroke="#FCFDFD" stroke-width="5" class="lSUkEeJm_16"></path>
<path stroke="#5E94C1" stroke-width="4" d="M46,82L50,82" class="lSUkEeJm_17"></path>
<path d="M75.0001 91.5L141 91.5" stroke="#FCFDFD" stroke-width="5" class="lSUkEeJm_18"></path>
<path stroke="#5E94C1" stroke-width="4" d="M46,92L50,92" class="lSUkEeJm_19"></path>
<path d="M95.0001 101.5L204 101.5" stroke="#FF6452" stroke-width="5" class="lSUkEeJm_20"></path>
<path stroke="#5E94C1" stroke-width="4" d="M46,102L50,102" class="lSUkEeJm_21"></path>
<path d="M215 101.5L251 101.5" stroke="#FCFDFD" stroke-width="5" class="lSUkEeJm_22"></path>
<path d="M265 101.5L301 101.5" stroke="#FCFDFD" stroke-width="5" class="lSUkEeJm_23"></path>
<path d="M105 111.5L150 111.5" stroke="#FCFDFD" stroke-width="5" class="lSUkEeJm_24"></path>
<path stroke="#5E94C1" stroke-width="4" d="M46,112L50,112" class="lSUkEeJm_25"></path>
<path d="M105 121.5L165 121.5" stroke="#FF6452" stroke-width="5" class="lSUkEeJm_26"></path>
<path stroke="#5E94C1" stroke-width="4" d="M46,122L50,122" class="lSUkEeJm_27"></path>
<path d="M185 121.5L251 121.5" stroke="#FCFDFD" stroke-width="5" class="lSUkEeJm_28"></path>
<path d="M265 121.5L293 121.5" stroke="#FF6452" stroke-width="5" class="lSUkEeJm_29"></path>
<path d="M75.0001 131.5L116 131.5" stroke="#FCFDFD" stroke-width="5" class="lSUkEeJm_30"></path>
<path stroke="#5E94C1" stroke-width="4" d="M46,132L50,132" class="lSUkEeJm_31"></path>
<path d="M75.0001 141.5L141 141.5" stroke="#FCFDFD" stroke-width="5" class="lSUkEeJm_32"></path>
<path stroke="#5E94C1" stroke-width="4" d="M46,142L50,142" class="lSUkEeJm_33"></path>
<path d="M105 151.5L224 151.5" stroke="#FCFDFD" stroke-width="5" class="lSUkEeJm_34"></path>
<path stroke="#5E94C1" stroke-width="4" d="M46,152L50,152" class="lSUkEeJm_35"></path>
<path d="M235 151.5L309 151.5" stroke="#00D5E4" stroke-width="5" class="lSUkEeJm_36"></path>
<path d="M105 161.5L146 161.5" stroke="#FCFDFD" stroke-width="5" class="lSUkEeJm_37"></path>
<path stroke="#5E94C1" stroke-width="4" d="M46,162L50,162" class="lSUkEeJm_38"></path>
<path d="M155 161.5L196 161.5" stroke="#00D050" stroke-width="5" class="lSUkEeJm_39"></path>
<path d="M205 161.5L246 161.5" stroke="#FCFDFD" stroke-width="5" class="lSUkEeJm_40"></path>
<path d="M75.0001 171.5L141 171.5" stroke="#FCFDFD" stroke-width="5" class="lSUkEeJm_41"></path>
<path stroke="#5E94C1" stroke-width="4" d="M46,172L50,172" class="lSUkEeJm_42"></path>
<path d="M95 181.5L161 181.5" stroke="#00D050" stroke-width="5" class="lSUkEeJm_43"></path>
<path stroke="#5E94C1" stroke-width="4" d="M46,182L50,182" class="lSUkEeJm_44"></path>
<path d="M173 181.5L238 181.5" stroke="#00D050" stroke-width="5" class="lSUkEeJm_45"></path>
<path d="M95.0001 191.5L192 191.5" stroke="#FCFDFD" stroke-width="5" class="lSUkEeJm_46"></path>
<path stroke="#5E94C1" stroke-width="4" d="M46,192L50,192" class="lSUkEeJm_47"></path>
<path d="M95 201.5L144 201.5" stroke="#FCFDFD" stroke-width="5" class="lSUkEeJm_48"></path>
<path stroke="#5E94C1" stroke-width="4" d="M46,202L50,202" class="lSUkEeJm_49"></path>
<path d="M171 201.5L209 201.5" stroke="#FCFDFD" stroke-width="5" class="lSUkEeJm_50"></path>
<path d="M285 202L267 194L285 186" stroke="#FCFDFD" stroke-width="3" stroke-linejoin="bevel" class="lSUkEeJm_51"></path>
<path d="M288.5 207.5L296.5 179.5" stroke="#FCFDFD" stroke-width="3" class="lSUkEeJm_52"></path>
<path d="M300 202L318 194.5L300 186" stroke="#FCFDFD" stroke-width="3" stroke-linejoin="bevel" class="lSUkEeJm_53"></path>
<path d="M337 233.7H20C9 233.7 0 224.7 0 213.7H357C357 224.8 348 233.7 337 233.7Z" fill="#00BBD3" class="lSUkEeJm_54"></path>
<path d="M354.3 223.7C356 220.8 357 217.3 357 213.7H0C0 217.3 1 220.8 2.7 223.7H354.3Z" fill="#15D7E2" class="lSUkEeJm_55"></path>
</g>
<defs>
<clipPath id="clip0">
<path width="357" height="233.7" fill="white" d="M0 0 L357 0 L357 233.7 L0 233.7 Z" class="lSUkEeJm_56"></path>
</clipPath>
</defs>
<style data-made-with="vivus-instant">.lSUkEeJm_0{stroke-dasharray:1095 1097;stroke-dashoffset:1096;animation:lSUkEeJm_draw 1574ms ease 0ms forwards;}.lSUkEeJm_1{stroke-dasharray:1020 1022;stroke-dashoffset:1021;animation:lSUkEeJm_draw 1466ms ease 1574ms forwards;}.lSUkEeJm_2{stroke-dasharray:39 41;stroke-dashoffset:40;animation:lSUkEeJm_draw 57ms ease 3040ms forwards;}.lSUkEeJm_3{stroke-dasharray:4 6;stroke-dashoffset:5;animation:lSUkEeJm_draw 7ms ease 3098ms forwards;}.lSUkEeJm_4{stroke-dasharray:27 29;stroke-dashoffset:28;animation:lSUkEeJm_draw 40ms ease 3105ms forwards;}.lSUkEeJm_5{stroke-dasharray:4 6;stroke-dashoffset:5;animation:lSUkEeJm_draw 7ms ease 3145ms forwards;}.lSUkEeJm_6{stroke-dasharray:104 106;stroke-dashoffset:105;animation:lSUkEeJm_draw 150ms ease 3152ms forwards;}.lSUkEeJm_7{stroke-dasharray:55 57;stroke-dashoffset:56;animation:lSUkEeJm_draw 80ms ease 3303ms forwards;}.lSUkEeJm_8{stroke-dasharray:66 68;stroke-dashoffset:67;animation:lSUkEeJm_draw 96ms ease 3384ms forwards;}.lSUkEeJm_9{stroke-dasharray:4 6;stroke-dashoffset:5;animation:lSUkEeJm_draw 7ms ease 3480ms forwards;}.lSUkEeJm_10{stroke-dasharray:98 100;stroke-dashoffset:99;animation:lSUkEeJm_draw 142ms ease 3487ms forwards;}.lSUkEeJm_11{stroke-dasharray:92 94;stroke-dashoffset:93;animation:lSUkEeJm_draw 133ms ease 3629ms forwards;}.lSUkEeJm_12{stroke-dasharray:4 6;stroke-dashoffset:5;animation:lSUkEeJm_draw 7ms ease 3763ms forwards;}.lSUkEeJm_13{stroke-dasharray:66 68;stroke-dashoffset:67;animation:lSUkEeJm_draw 96ms ease 3770ms forwards;}.lSUkEeJm_14{stroke-dasharray:66 68;stroke-dashoffset:67;animation:lSUkEeJm_draw 96ms ease 3866ms forwards;}.lSUkEeJm_15{stroke-dasharray:4 6;stroke-dashoffset:5;animation:lSUkEeJm_draw 7ms ease 3962ms forwards;}.lSUkEeJm_16{stroke-dasharray:96 98;stroke-dashoffset:97;animation:lSUkEeJm_draw 139ms ease 3970ms forwards;}.lSUkEeJm_17{stroke-dasharray:4 6;stroke-dashoffset:5;animation:lSUkEeJm_draw 7ms ease 4109ms forwards;}.lSUkEeJm_18{stroke-dasharray:66 68;stroke-dashoffset:67;animation:lSUkEeJm_draw 96ms ease 4116ms forwards;}.lSUkEeJm_19{stroke-dasharray:4 6;stroke-dashoffset:5;animation:lSUkEeJm_draw 7ms ease 4212ms forwards;}.lSUkEeJm_20{stroke-dasharray:109 111;stroke-dashoffset:110;animation:lSUkEeJm_draw 158ms ease 4220ms forwards;}.lSUkEeJm_21{stroke-dasharray:4 6;stroke-dashoffset:5;animation:lSUkEeJm_draw 7ms ease 4378ms forwards;}.lSUkEeJm_22{stroke-dasharray:36 38;stroke-dashoffset:37;animation:lSUkEeJm_draw 53ms ease 4385ms forwards;}.lSUkEeJm_23{stroke-dasharray:36 38;stroke-dashoffset:37;animation:lSUkEeJm_draw 53ms ease 4438ms forwards;}.lSUkEeJm_24{stroke-dasharray:45 47;stroke-dashoffset:46;animation:lSUkEeJm_draw 66ms ease 4491ms forwards;}.lSUkEeJm_25{stroke-dasharray:4 6;stroke-dashoffset:5;animation:lSUkEeJm_draw 7ms ease 4557ms forwards;}.lSUkEeJm_26{stroke-dasharray:60 62;stroke-dashoffset:61;animation:lSUkEeJm_draw 87ms ease 4564ms forwards;}.lSUkEeJm_27{stroke-dasharray:4 6;stroke-dashoffset:5;animation:lSUkEeJm_draw 7ms ease 4652ms forwards;}.lSUkEeJm_28{stroke-dasharray:66 68;stroke-dashoffset:67;animation:lSUkEeJm_draw 96ms ease 4659ms forwards;}.lSUkEeJm_29{stroke-dasharray:28 30;stroke-dashoffset:29;animation:lSUkEeJm_draw 41ms ease 4755ms forwards;}.lSUkEeJm_30{stroke-dasharray:41 43;stroke-dashoffset:42;animation:lSUkEeJm_draw 60ms ease 4797ms forwards;}.lSUkEeJm_31{stroke-dasharray:4 6;stroke-dashoffset:5;animation:lSUkEeJm_draw 7ms ease 4857ms forwards;}.lSUkEeJm_32{stroke-dasharray:66 68;stroke-dashoffset:67;animation:lSUkEeJm_draw 96ms ease 4864ms forwards;}.lSUkEeJm_33{stroke-dasharray:4 6;stroke-dashoffset:5;animation:lSUkEeJm_draw 7ms ease 4961ms forwards;}.lSUkEeJm_34{stroke-dasharray:119 121;stroke-dashoffset:120;animation:lSUkEeJm_draw 172ms ease 4968ms forwards;}.lSUkEeJm_35{stroke-dasharray:4 6;stroke-dashoffset:5;animation:lSUkEeJm_draw 7ms ease 5140ms forwards;}.lSUkEeJm_36{stroke-dasharray:74 76;stroke-dashoffset:75;animation:lSUkEeJm_draw 107ms ease 5147ms forwards;}.lSUkEeJm_37{stroke-dasharray:41 43;stroke-dashoffset:42;animation:lSUkEeJm_draw 60ms ease 5255ms forwards;}.lSUkEeJm_38{stroke-dasharray:4 6;stroke-dashoffset:5;animation:lSUkEeJm_draw 7ms ease 5316ms forwards;}.lSUkEeJm_39{stroke-dasharray:41 43;stroke-dashoffset:42;animation:lSUkEeJm_draw 60ms ease 5323ms forwards;}.lSUkEeJm_40{stroke-dasharray:41 43;stroke-dashoffset:42;animation:lSUkEeJm_draw 60ms ease 5383ms forwards;}.lSUkEeJm_41{stroke-dasharray:66 68;stroke-dashoffset:67;animation:lSUkEeJm_draw 96ms ease 5443ms forwards;}.lSUkEeJm_42{stroke-dasharray:4 6;stroke-dashoffset:5;animation:lSUkEeJm_draw 7ms ease 5540ms forwards;}.lSUkEeJm_43{stroke-dasharray:66 68;stroke-dashoffset:67;animation:lSUkEeJm_draw 96ms ease 5547ms forwards;}.lSUkEeJm_44{stroke-dasharray:4 6;stroke-dashoffset:5;animation:lSUkEeJm_draw 7ms ease 5643ms forwards;}.lSUkEeJm_45{stroke-dasharray:65 67;stroke-dashoffset:66;animation:lSUkEeJm_draw 94ms ease 5650ms forwards;}.lSUkEeJm_46{stroke-dasharray:97 99;stroke-dashoffset:98;animation:lSUkEeJm_draw 140ms ease 5745ms forwards;}.lSUkEeJm_47{stroke-dasharray:4 6;stroke-dashoffset:5;animation:lSUkEeJm_draw 7ms ease 5886ms forwards;}.lSUkEeJm_48{stroke-dasharray:49 51;stroke-dashoffset:50;animation:lSUkEeJm_draw 71ms ease 5893ms forwards;}.lSUkEeJm_49{stroke-dasharray:4 6;stroke-dashoffset:5;animation:lSUkEeJm_draw 7ms ease 5965ms forwards;}.lSUkEeJm_50{stroke-dasharray:38 40;stroke-dashoffset:39;animation:lSUkEeJm_draw 56ms ease 5972ms forwards;}.lSUkEeJm_51{stroke-dasharray:40 42;stroke-dashoffset:41;animation:lSUkEeJm_draw 58ms ease 6028ms forwards;}.lSUkEeJm_52{stroke-dasharray:30 32;stroke-dashoffset:31;animation:lSUkEeJm_draw 44ms ease 6087ms forwards;}.lSUkEeJm_53{stroke-dasharray:40 42;stroke-dashoffset:41;animation:lSUkEeJm_draw 58ms ease 6131ms forwards;}.lSUkEeJm_54{stroke-dasharray:737 739;stroke-dashoffset:738;animation:lSUkEeJm_draw 1060ms ease 6190ms forwards;}.lSUkEeJm_55{stroke-dasharray:730 732;stroke-dashoffset:731;animation:lSUkEeJm_draw 1049ms ease 7250ms forwards;}.lSUkEeJm_56{stroke-dasharray:1182 1184;stroke-dashoffset:1183;animation:lSUkEeJm_draw 1699ms ease 8300ms forwards;}@keyframes lSUkEeJm_draw{100%{stroke-dashoffset:0;}}@keyframes lSUkEeJm_fade{0%{stroke-opacity:1;}97.01492537313433%{stroke-opacity:1;}100%{stroke-opacity:0;}}</style></svg>
