<svg width="30" height="30" viewBox="0 0 30 30" fill="none" xmlns="http://www.w3.org/2000/svg">
<path d="M11.8365 21.0235C11.7232 21.0235 11.609 20.9845 11.5159 20.9052L8.3109 18.1762C8.20035 18.082 8.13678 17.9443 8.13678 17.799C8.13678 17.6539 8.20063 17.5162 8.3109 17.422L11.5159 14.693C11.724 14.5155 12.0366 14.5407 12.214 14.7488C12.3912 14.9572 12.3663 15.2698 12.1579 15.4469L9.396 17.799L12.1579 20.151C12.3663 20.3284 12.3912 20.641 12.214 20.8491C12.1159 20.9644 11.9766 21.0235 11.8365 21.0235Z" fill="#4985FF"/>
<path d="M18.1635 21.0235C18.0234 21.0235 17.8841 20.9644 17.7862 20.8491C17.6088 20.641 17.6339 20.3284 17.8421 20.151L20.604 17.799L17.8421 15.4469C17.6339 15.2698 17.6088 14.9572 17.7862 14.7488C17.9634 14.5407 18.2763 14.5155 18.4841 14.693L21.6891 17.422C21.7996 17.5162 21.8632 17.6539 21.8632 17.799C21.8632 17.9443 21.7996 18.082 21.6891 18.1762L18.4841 20.9052C18.391 20.9845 18.2768 21.0235 18.1635 21.0235Z" fill="#4985FF"/>
<path d="M13.8654 23.0703C13.8314 23.0703 13.7971 23.0667 13.7626 23.0595C13.495 23.0032 13.3237 22.7403 13.3801 22.4728L15.3775 12.9892C15.4339 12.7217 15.6965 12.5503 15.9643 12.6067C16.2318 12.6631 16.4032 12.9256 16.3468 13.1934L14.3494 22.677C14.3002 22.9103 14.0945 23.0703 13.8654 23.0703Z" fill="#4985FF"/>
<path d="M26.6745 28.2371H3.32547C1.49193 28.2371 0 26.7455 0 24.9117V5.09427C0 3.26073 1.49193 1.7688 3.32547 1.7688H26.6745C28.5081 1.7688 30 3.26073 30 5.09427V24.9117C30 26.7455 28.5081 28.2371 26.6745 28.2371ZM3.32547 2.75936C2.03807 2.75936 0.990566 3.80687 0.990566 5.09427V24.9117C0.990566 26.1991 2.03807 27.2466 3.32547 27.2466H26.6745C27.9619 27.2466 29.0094 26.1991 29.0094 24.9117V5.09427C29.0094 3.80687 27.9619 2.75936 26.6745 2.75936H3.32547Z" fill="#4985FF"/>
<path d="M29.5047 9.69979H0.495283C0.221661 9.69979 0 9.47813 0 9.20451C0 8.93117 0.221661 8.70923 0.495283 8.70923H29.5047C29.7783 8.70923 30 8.93117 30 9.20451C30 9.47813 29.7783 9.69979 29.5047 9.69979Z" fill="#4985FF"/>
<path d="M8.4624 7.32983C7.59842 7.32983 6.89502 6.62643 6.89502 5.76245C6.89502 4.89819 7.59842 4.19507 8.4624 4.19507C9.32666 4.19507 10.0298 4.89819 10.0298 5.76245C10.0298 6.62643 9.32666 7.32983 8.4624 7.32983ZM8.4624 5.18563C8.14456 5.18563 7.88559 5.44433 7.88559 5.76245C7.88559 6.08057 8.14456 6.33927 8.4624 6.33927C8.78052 6.33927 9.03922 6.08057 9.03922 5.76245C9.03922 5.44433 8.78052 5.18563 8.4624 5.18563Z" fill="#4985FF"/>
<path d="M3.6466 7.31445C2.78235 7.31445 2.07922 6.61133 2.07922 5.74707C2.07922 4.88281 2.78235 4.17969 3.6466 4.17969C4.51086 4.17969 5.21398 4.88281 5.21398 5.74707C5.21398 6.61133 4.51086 7.31445 3.6466 7.31445ZM3.6466 5.17025C3.32876 5.17025 3.06979 5.42923 3.06979 5.74707C3.06979 6.06519 3.32876 6.32389 3.6466 6.32389C3.96472 6.32389 4.22342 6.06519 4.22342 5.74707C4.22342 5.42923 3.96472 5.17025 3.6466 5.17025Z" fill="#4985FF"/>
<path d="M13.2781 7.34469C12.4141 7.34469 11.711 6.64157 11.711 5.77731C11.711 4.91333 12.4141 4.21021 13.2781 4.21021C14.1424 4.21021 14.8455 4.91333 14.8455 5.77731C14.8455 6.64157 14.1424 7.34469 13.2781 7.34469ZM13.2781 5.20049C12.9603 5.20049 12.7016 5.45919 12.7016 5.77731C12.7016 6.09543 12.9603 6.35413 13.2781 6.35413C13.5962 6.35413 13.8549 6.09543 13.8549 5.77731C13.8549 5.45919 13.5962 5.20049 13.2781 5.20049Z" fill="#4985FF"/>
</svg>
