<svg width="86" height="38" viewBox="0 0 86 38" fill="none" xmlns="http://www.w3.org/2000/svg">
<path d="M9.75 0.5625C9.65625 1.26562 9.59375 1.98438 9.5625 2.71875C9.53125 3.4375 9.51562 4.1875 9.51562 4.96875C9.51562 6.35938 9.58594 7.78125 9.72656 9.23438C9.86719 10.6719 10.0781 12.1094 10.3594 13.5469C10.6406 14.9844 10.9922 16.3984 11.4141 17.7891C11.8359 19.1641 12.3203 20.4766 12.8672 21.7266C13.4297 22.9766 14.0547 24.1406 14.7422 25.2188C15.4453 26.2969 16.2188 27.25 17.0625 28.0781C17.9844 27.125 18.7266 26.0312 19.2891 24.7969C19.8672 23.5469 20.3125 22.25 20.625 20.9062C20.9531 19.5469 21.1719 18.1797 21.2812 16.8047C21.3906 15.4297 21.4531 14.125 21.4688 12.8906H26.625C26.625 14.125 26.6797 15.4219 26.7891 16.7812C26.8984 18.1406 27.1094 19.4922 27.4219 20.8359C27.7344 22.1641 28.1719 23.4531 28.7344 24.7031C29.2969 25.9375 30.0312 27.0469 30.9375 28.0312C32.25 26.6094 33.3828 25 34.3359 23.2031C35.2891 21.3906 36.0781 19.4922 36.7031 17.5078C37.3281 15.5234 37.7891 13.4922 38.0859 11.4141C38.3828 9.33594 38.5312 7.29688 38.5312 5.29688C38.5312 3.625 38.4375 2.01562 38.25 0.46875C39.625 0.53125 40.8516 0.625 41.9297 0.75C43.0234 0.875 43.9688 1 44.7656 1.125C45.6719 1.28125 46.4844 1.4375 47.2031 1.59375V7.5C46.6875 7.32812 46.1797 7.19531 45.6797 7.10156C45.1953 6.99219 44.7188 6.875 44.25 6.75C44.25 10.1094 43.9219 13.2266 43.2656 16.1016C42.625 18.9609 41.7266 21.6328 40.5703 24.1172C39.4141 26.6016 38.0312 28.9062 36.4219 31.0312C34.8125 33.1562 33.0469 35.1406 31.125 36.9844C29.75 35.6562 28.4688 34.1719 27.2812 32.5312C26.1094 30.8906 25.0312 29.0312 24.0469 26.9531C23.0312 29.0312 21.9219 30.8984 20.7188 32.5547C19.5312 34.2109 18.25 35.7031 16.875 37.0312C14.9688 35.1875 13.2266 33.2031 11.6484 31.0781C10.0703 28.9531 8.71875 26.6484 7.59375 24.1641C6.46875 21.6797 5.59375 19.0078 4.96875 16.1484C4.34375 13.2734 4.03125 10.1562 4.03125 6.79688C3.46875 6.92188 2.92188 7.03906 2.39062 7.14844C1.875 7.24219 1.35938 7.375 0.84375 7.54688V1.59375C0.84375 1.60938 1.04688 1.57812 1.45312 1.5C1.875 1.42188 2.46875 1.32813 3.23438 1.21875C4.01562 1.09375 4.95312 0.976563 6.04688 0.867188C7.14062 0.742188 8.375 0.640625 9.75 0.5625ZM68.25 0.28125C70.375 0.28125 72.4297 0.414063 74.4141 0.679688C76.4141 0.929688 78.2031 1.36719 79.7812 1.99219C81.375 2.60156 82.6797 3.42969 83.6953 4.47656C84.7266 5.52344 85.3281 6.82812 85.5 8.39062L79.4062 10.0781C79.4062 9.14062 79.0859 8.375 78.4453 7.78125C77.8203 7.17188 76.9844 6.69531 75.9375 6.35156C74.9062 5.99219 73.7188 5.74219 72.375 5.60156C71.0469 5.46094 69.6719 5.39062 68.25 5.39062C66.8594 5.39062 65.4922 5.45312 64.1484 5.57812C62.8047 5.70312 61.5938 5.9375 60.5156 6.28125C59.4531 6.625 58.5938 7.10156 57.9375 7.71094C57.2812 8.32031 56.9531 9.10938 56.9531 10.0781V15.6562H85.5V27.7969C85.5 28.8438 85.2656 29.7812 84.7969 30.6094C84.3438 31.4219 83.7109 32.1328 82.8984 32.7422C82.1016 33.3359 81.1484 33.8438 80.0391 34.2656C78.9453 34.6719 77.7578 35 76.4766 35.25C75.2109 35.5 73.875 35.6797 72.4688 35.7891C71.0625 35.8984 69.6562 35.9531 68.25 35.9531C66.8125 35.9531 65.3984 35.8984 64.0078 35.7891C62.6172 35.6797 61.2969 35.5 60.0469 35.25C58.7969 35 57.6328 34.6719 56.5547 34.2656C55.4922 33.8438 54.5547 33.3359 53.7422 32.7422C52.9297 32.1328 52.2734 31.4219 51.7734 30.6094C51.2734 29.7969 50.9688 28.8594 50.8594 27.7969L56.9531 26.1094C56.9531 27.0781 57.2812 27.8672 57.9375 28.4766C58.5938 29.0859 59.4531 29.5625 60.5156 29.9062C61.5938 30.25 62.8047 30.4844 64.1484 30.6094C65.4922 30.7344 66.8594 30.7969 68.25 30.7969C69.6719 30.7969 71.0469 30.7344 72.375 30.6094C73.7188 30.4688 74.9062 30.2266 75.9375 29.8828C76.9844 29.5234 77.8203 29.0391 78.4453 28.4297C79.0859 27.8203 79.4062 27.0469 79.4062 26.1094V20.3906H50.8594V8.39062C50.8594 7.34375 51.0859 6.42188 51.5391 5.625C52.0078 4.8125 52.6406 4.10938 53.4375 3.51562C54.25 2.90625 55.2109 2.39844 56.3203 1.99219C57.4297 1.57031 58.625 1.23438 59.9062 0.984375C61.2031 0.734375 62.5547 0.554688 63.9609 0.445312C65.3828 0.335937 66.8125 0.28125 68.25 0.28125Z" fill="#34547A"/>
</svg>
